# xmcd
#
# Track frame offsets: 
#        150
#        17448
#        36720
#        55178
#        76075
#        90862
#        107553
#        125183
#        145726
#        162766
#        175189
#
# Disc length: 2482 seconds
#
# Revision: 0
# Processed by: cddbd v1.5.2PL0 Copyright (c) Steve Scherf et al.
# Submitted via: ExactAudioCopyFreeDBPlugin 1.0
#
DISCID=8209b00b
DTITLE=Sarah Peacock - Burn The Witch
DYEAR=1900
DGENRE=Rock
TTITLE0=Burn The Witch
TTITLE1=Keep Quiet
TTITLE2=Mojave
TTITLE3=The Cool Kids
TTITLE4=House Of Bones
TTITLE5=Thomas
TTITLE6=Colorado
TTITLE7=The One
TTITLE8=Take a Little Time
TTITLE9=Take You High
TTITLE10=Hold Me In Your Heart
EXTD=
EXTT0=
EXTT1=
EXTT2=
EXTT3=
EXTT4=
EXTT5=
EXTT6=
EXTT7=
EXTT8=
EXTT9=
EXTT10=
PLAYORDER=
